<svg xmlns="http://www.w3.org/2000/svg" viewBox="0 0 64 64" role="img" aria-label="DuckDuckGo icon">
  <defs>
    <linearGradient id="duckGradient" x1="0%" y1="0%" x2="100%" y2="100%">
      <stop offset="0%" stop-color="#ff8f1f" />
      <stop offset="100%" stop-color="#ff5c00" />
    </linearGradient>
  </defs>
  <circle cx="32" cy="32" r="30" fill="url(#duckGradient)" />
  <path
    d="M27.6 18.5c3.8 0 6.3 2 7.5 5.9l6.2-.5c1.2 0 1.9 0.9 1.7 2L41 38.8c-0.3 1.4-1.6 2.6-3.1 2.6H33c-4.8 0-7.7-2.9-7.7-7.5 0-2.7 1.1-4.6 3.4-6-2.2-1.1-3.4-3-3.4-5.5 0-2.5 1.9-3.9 4.3-3.9zM39.8 33.7l1.1-6.8-3.3 0.2c0.4 1 0.6 2.2 0.6 3.4 0 1.3-0.3 2.4-0.8 3.2h2.4z"
    fill="#fff"
  />
  <path
    d="M27.5 23.8c0-0.8 0.6-1.3 1.4-1.3 0.8 0 1.4 0.5 1.4 1.3 0 0.8-0.6 1.4-1.4 1.4-0.8 0-1.4-0.6-1.4-1.4zm7.4 0c0-0.8 0.6-1.3 1.4-1.3 0.8 0 1.4 0.5 1.4 1.3 0 0.8-0.6 1.4-1.4 1.4-0.8 0-1.4-0.6-1.4-1.4z"
    fill="#2d2d2d"
  />
  <path
    d="M24.1 38.8c0 2.4 1.6 4.3 4.2 5.1-2.3-0.2-4.3-0.9-5.9-2.4-1.5-1.5-2.3-3.3-2.3-5.5 0-3.4 1.9-5.8 5.7-7.3-1 1.4-1.6 3-1.6 4.8 0 2.1 0.9 3.9 2.6 5.3-1.7 0.2-2.7 0.9-2.7 2z"
    fill="#fff7ec"
  />
</svg>
