<svg xmlns="http://www.w3.org/2000/svg" viewBox="0 0 64 64" role="img" aria-label="Qwant icon">
  <defs>
    <linearGradient id="qwantGradient" x1="0%" y1="0%" x2="100%" y2="100%">
      <stop offset="0%" stop-color="#00b4d8" />
      <stop offset="100%" stop-color="#2a9d8f" />
    </linearGradient>
  </defs>
  <circle cx="32" cy="32" r="30" fill="url(#qwantGradient)" />
  <path
    d="M32 18c-7.7 0-14 6.3-14 14 0 5.3 3 9.9 7.3 12.3l-4.1 6.7h6.6l2.8-4.5c0.4 0 0.9 0.1 1.4 0.1 7.7 0 14-6.3 14-14S39.7 18 32 18zm0 8c3.3 0 6 2.7 6 6s-2.7 6-6 6-6-2.7-6-6 2.7-6 6-6z"
    fill="#ffffff"
  />
</svg>
